<svg viewBox="0 0 48 48" fill="none" xmlns="http://www.w3.org/2000/svg">
  <circle cx="24" cy="24" r="24" fill="white" />
  <path d="M24.7752 22.7214C23.6306 23.2114 22.3316 23.7671 20.648 23.7671C19.9437 23.7656 19.2428 23.669 18.5645 23.4798L19.7288 35.4345C19.77 35.9342 19.9976 36.4001 20.3665 36.7397C20.7354 37.0793 21.2184 37.2678 21.7198 37.2677C21.7198 37.2677 23.3708 37.3534 23.9217 37.3534C24.5145 37.3534 26.2925 37.2677 26.2925 37.2677C26.7938 37.2677 27.2767 37.0791 27.6454 36.7396C28.0142 36.4 28.2418 35.9341 28.283 35.4345L29.5301 22.224C28.9728 22.0337 28.4103 21.9072 27.7762 21.9072C26.6796 21.9068 25.7961 22.2845 24.7752 22.7214Z" fill="#FFDD00" />
  <path d="M34.9153 16.5175L34.7399 15.6331C34.5825 14.8395 34.2255 14.0897 33.4109 13.8029C33.1498 13.7111 32.8536 13.6717 32.6533 13.4818C32.4532 13.2918 32.3939 12.9969 32.3477 12.7234C32.262 12.2213 32.1813 11.7189 32.0935 11.2177C32.0176 10.7869 31.9575 10.3028 31.7599 9.90757C31.5027 9.37681 30.969 9.06643 30.4381 8.86107C30.1662 8.75955 29.8886 8.67366 29.6069 8.60385C28.2809 8.25401 26.8868 8.12539 25.5226 8.05209C23.8852 7.96173 22.2434 7.98896 20.6099 8.13354C19.394 8.24415 18.1134 8.37791 16.9581 8.79848C16.5358 8.95239 16.1007 9.13717 15.7796 9.46341C15.3856 9.86426 15.257 10.4842 15.5446 10.9841C15.7491 11.339 16.0955 11.5898 16.4629 11.7558C16.9415 11.9695 17.4413 12.1322 17.954 12.2411C19.3817 12.5566 20.8603 12.6805 22.3187 12.7332C23.9353 12.7985 25.5545 12.7456 27.1633 12.575C27.561 12.5313 27.9582 12.4789 28.3546 12.4177C28.8214 12.3461 29.1212 11.7356 28.9836 11.3103C28.8189 10.8019 28.3765 10.6047 27.8762 10.6814C27.8025 10.693 27.7291 10.7037 27.6554 10.7144L27.6022 10.7221C27.4328 10.7436 27.2632 10.7636 27.0938 10.7822C26.7437 10.8199 26.3927 10.8507 26.0408 10.8747C25.2529 10.9296 24.4628 10.9549 23.6731 10.9562C22.8972 10.9562 22.1207 10.9343 21.3464 10.8833C20.9932 10.8602 20.6408 10.8307 20.2893 10.795C20.1293 10.7783 19.9698 10.7607 19.8104 10.741L19.6586 10.7217L19.6255 10.717L19.4682 10.6943C19.1467 10.6458 18.8252 10.5901 18.507 10.5228C18.475 10.5157 18.4463 10.4978 18.4257 10.4721C18.4051 10.4465 18.3938 10.4146 18.3938 10.3817C18.3938 10.3488 18.4051 10.3169 18.4257 10.2913C18.4463 10.2657 18.475 10.2478 18.507 10.2407H18.513C18.7887 10.1819 19.0665 10.1318 19.3451 10.0881C19.438 10.0735 19.5313 10.0592 19.6247 10.0452H19.6273C19.8017 10.0336 19.9771 10.0023 20.1507 9.98173C21.6615 9.82461 23.181 9.77103 24.6989 9.82139C25.4359 9.84283 26.1725 9.88613 26.906 9.96072C27.0638 9.97701 27.2207 9.99417 27.3776 10.0135C27.4376 10.0207 27.498 10.0293 27.5585 10.0366L27.6802 10.0542C28.0353 10.1071 28.3884 10.1712 28.7396 10.2467C29.2601 10.3599 29.9285 10.3967 30.16 10.9669C30.2337 11.1478 30.2671 11.3489 30.3079 11.5388L30.3597 11.781C30.3611 11.7854 30.3621 11.7898 30.3628 11.7943C30.4853 12.366 30.6081 12.9376 30.731 13.5092C30.74 13.5514 30.7402 13.5951 30.7317 13.6374C30.723 13.6797 30.7058 13.7198 30.681 13.7551C30.6562 13.7905 30.6244 13.8204 30.5876 13.8429C30.5508 13.8654 30.5098 13.8801 30.467 13.886H30.4635L30.3884 13.8963L30.3143 13.9062C30.0793 13.9368 29.8441 13.9653 29.6087 13.9919C29.1448 14.0448 28.6802 14.0905 28.2148 14.1291C27.2903 14.206 26.3639 14.2564 25.4355 14.2805C24.9625 14.293 24.4897 14.2989 24.0168 14.298C22.1353 14.2966 20.2553 14.1872 18.3861 13.9705C18.1839 13.9465 17.9815 13.9208 17.7791 13.8946C17.936 13.9148 17.6651 13.8792 17.6102 13.8715C17.4816 13.8535 17.3529 13.8347 17.2243 13.8153C16.7926 13.7506 16.3635 13.6708 15.9326 13.601C15.4117 13.5152 14.9136 13.5581 14.4424 13.8153C14.0557 14.0269 13.7426 14.3515 13.5451 14.7456C13.3419 15.1658 13.2814 15.6232 13.1906 16.0746C13.0997 16.5261 12.9582 17.0118 13.0118 17.4752C13.1271 18.4755 13.8263 19.2883 14.8321 19.4701C15.7783 19.6415 16.7296 19.7804 17.6835 19.8988C21.4306 20.3577 25.2161 20.4125 28.9749 20.0625C29.2811 20.0339 29.5867 20.0029 29.892 19.9691C29.9874 19.9586 30.0839 19.9696 30.1744 20.0013C30.265 20.0329 30.3472 20.0843 30.4153 20.1519C30.4834 20.2195 30.5355 20.3014 30.5678 20.3918C30.6001 20.482 30.6118 20.5785 30.602 20.6739L30.5068 21.5991C30.3151 23.4685 30.1232 25.3379 29.9314 27.2071C29.7314 29.1701 29.53 31.1328 29.3273 33.0955C29.2702 33.6483 29.2131 34.2008 29.1559 34.7534C29.101 35.2974 29.0933 35.8586 28.9899 36.3961C28.827 37.2416 28.2547 37.7607 27.4196 37.9507C26.6545 38.1248 25.8729 38.2162 25.0883 38.2234C24.2184 38.2281 23.349 38.1895 22.4791 38.1942C21.5505 38.1993 20.4131 38.1136 19.6964 37.4225C19.0665 36.8155 18.9794 35.865 18.8937 35.0432C18.7794 33.955 18.6661 32.8671 18.5538 31.7793L17.9235 25.7306L17.5158 21.8169C17.5091 21.7522 17.5022 21.6882 17.4958 21.6231C17.4469 21.1562 17.1163 20.6992 16.5954 20.7228C16.1496 20.7425 15.6428 21.1215 15.6951 21.6231L15.9974 24.5247L16.6224 30.5266C16.8005 32.2315 16.9781 33.9367 17.1553 35.6421C17.1896 35.9687 17.2218 36.2963 17.2578 36.6229C17.4536 38.4081 18.8171 39.3702 20.5054 39.6412C21.4914 39.7997 22.5014 39.8324 23.5021 39.8486C24.7848 39.8692 26.0803 39.9185 27.342 39.6861C29.2116 39.3431 30.6143 38.0948 30.8146 36.1582C30.8717 35.5992 30.9289 35.04 30.9861 34.4807C31.1762 32.6309 31.3659 30.781 31.5554 28.931L32.1753 22.8861L32.4596 20.1157C32.4738 19.9783 32.5317 19.8492 32.625 19.7473C32.7183 19.6455 32.8419 19.5764 32.9774 19.5502C33.512 19.4461 34.0231 19.2681 34.4034 18.8612C35.0087 18.2136 35.1292 17.3689 34.9153 16.5175ZM14.8047 17.1151C14.8128 17.1113 14.7978 17.1811 14.7914 17.2137C14.7901 17.1644 14.7927 17.1207 14.8047 17.1151ZM14.8565 17.5164C14.8608 17.5134 14.8737 17.5305 14.887 17.5511C14.8668 17.5323 14.854 17.5182 14.8561 17.5164H14.8565ZM14.9076 17.5837C14.926 17.615 14.9359 17.6347 14.9076 17.5837V17.5837ZM15.01 17.6669H15.0126C15.0126 17.6699 15.0173 17.6728 15.019 17.6759C15.0162 17.6726 15.013 17.6695 15.0096 17.6669H15.01ZM32.9526 17.5426C32.7606 17.7252 32.4711 17.8101 32.1852 17.8525C28.9784 18.3284 25.725 18.5693 22.483 18.463C20.1628 18.3836 17.8669 18.126 15.5699 17.8015C15.3449 17.7697 15.1009 17.7287 14.9461 17.5627C14.6546 17.2497 14.7978 16.6195 14.8737 16.2414C14.9431 15.895 15.076 15.4333 15.488 15.384C16.1311 15.3085 16.8779 15.5799 17.5141 15.6764C18.2801 15.7933 19.0489 15.8869 19.8206 15.9572C23.114 16.2573 26.4627 16.2105 29.7415 15.7715C30.3391 15.6912 30.9346 15.5979 31.5281 15.4916C32.0565 15.3968 32.6427 15.2189 32.962 15.7664C33.1811 16.1394 33.2102 16.6384 33.1764 17.0598C33.166 17.2434 33.0857 17.4161 32.9522 17.5426H32.9526Z" fill="#0D0C22" />
</svg>