<svg viewBox="0 0 16 16" fill="none" xmlns="http://www.w3.org/2000/svg">
  <g clip-path="url(#clip0_2_14)">
    <path fill-rule="evenodd" clip-rule="evenodd" d="M1.643 3.143L0.427 1.927C0.392036 1.89194 0.34745 1.86806 0.298896 1.85838C0.250342 1.8487 0.200005 1.85365 0.154269 1.87261C0.108532 1.89156 0.0694546 1.92368 0.0419903 1.96487C0.014526 2.00607 -8.81823e-05 2.05449 4.00326e-07 2.104V5.75C4.00326e-07 5.888 0.112 6 0.25 6H3.896C3.94551 6.00009 3.99393 5.98547 4.03513 5.95801C4.07632 5.93054 4.10843 5.89147 4.12739 5.84573C4.14635 5.79999 4.1513 5.74966 4.14162 5.7011C4.13194 5.65255 4.10805 5.60796 4.073 5.573L2.715 4.215C3.60023 2.97865 4.89091 2.09178 6.36246 1.7087C7.83401 1.32563 9.39329 1.47059 10.769 2.11837C12.1447 2.76616 13.2498 3.87575 13.8919 5.2541C14.5341 6.63245 14.6727 8.19231 14.2836 9.66228C13.8945 11.1323 13.0023 12.4193 11.7624 13.2995C10.5224 14.1796 9.01312 14.5972 7.49708 14.4796C5.98105 14.3619 4.55424 13.7165 3.4649 12.6556C2.37557 11.5947 1.69266 10.1854 1.535 8.673C1.51458 8.47501 1.41634 8.29325 1.26191 8.1677C1.10747 8.04214 0.909485 7.98308 0.7115 8.0035C0.513516 8.02392 0.331754 8.12215 0.206198 8.27659C0.0806424 8.43103 0.0215787 8.62901 0.0420004 8.827C0.234389 10.6782 1.06615 12.4045 2.3941 13.7086C3.72206 15.0127 5.46311 15.813 7.31753 15.9718C9.17195 16.1306 11.0237 15.6379 12.554 14.5786C14.0844 13.5192 15.1975 11.9595 15.7018 10.1679C16.2061 8.37634 16.0701 6.46498 15.3171 4.7629C14.5641 3.06082 13.2412 1.67451 11.5763 0.842629C9.91131 0.0107435 8.00843 -0.214666 6.1952 0.205204C4.38196 0.625075 2.77184 1.66395 1.642 3.143H1.643ZM7.75 4C7.94891 4 8.13968 4.07902 8.28033 4.21967C8.42098 4.36032 8.5 4.55109 8.5 4.75V7.742L10.528 8.554C10.7067 8.6319 10.8481 8.77634 10.9221 8.95669C10.9961 9.13704 10.997 9.33914 10.9246 9.52014C10.8522 9.70115 10.7121 9.84683 10.5341 9.92633C10.3561 10.0058 10.1541 10.0129 9.971 9.946L7.471 8.946C7.33197 8.89028 7.21281 8.79421 7.12886 8.67016C7.04492 8.54612 7.00004 8.39978 7 8.25V4.75C7 4.55109 7.07902 4.36032 7.21967 4.21967C7.36032 4.07902 7.55109 4 7.75 4V4Z" fill="black" />
  </g>
  <defs>
    <clipPath id="clip0_2_14">
      <rect fill="white" />
    </clipPath>
  </defs>
</svg>