<svg viewBox="0 0 48 48" fill="none" xmlns="http://www.w3.org/2000/svg">
  <path d="M0 24C0 10.7452 10.7452 0 24 0C37.2548 0 48 10.7452 48 24C48 37.2548 37.2548 48 24 48C10.7452 48 0 37.2548 0 24Z" fill="#F26798" />
  <path fill-rule="evenodd" clip-rule="evenodd" d="M39 24C39 25.0159 38.8967 26.0303 38.6939 27.0191C38.4961 27.9844 38.2031 28.9322 37.8193 29.8382C37.4443 30.7281 36.9792 31.5857 36.4357 32.3855C35.9003 33.1802 35.2836 33.9258 34.606 34.6055C33.927 35.2822 33.1799 35.8981 32.3867 36.4366C31.5854 36.977 30.7277 37.4421 29.8385 37.8194C28.9324 38.2017 27.9838 38.4946 27.0207 38.6924C26.0319 38.896 25.0152 39 23.9993 39C22.9827 39 21.966 38.896 20.9787 38.6924C20.014 38.4946 19.0655 38.2017 18.1602 37.8194C17.271 37.4421 16.4125 36.977 15.6112 36.4366C14.818 35.8982 14.0709 35.2822 13.3933 34.6055C12.7151 33.9258 12.0983 33.1802 11.5622 32.3855C11.0216 31.5857 10.5557 30.7281 10.1793 29.8382C9.79542 28.9322 9.50175 27.9844 9.30324 27.0191C9.10257 26.0303 9 25.0159 9 24C9 22.9834 9.10251 21.9668 9.3033 20.9802C9.50181 20.0149 9.79548 19.0657 10.1793 18.1611C10.5558 17.2705 11.0217 16.4122 11.5622 15.6123C12.0984 14.8169 12.7151 14.0727 13.3934 13.3923C14.0709 12.7155 14.818 12.1011 15.6113 11.5635C16.4126 11.0207 17.271 10.5557 18.1602 10.1777C19.0656 9.79462 20.014 9.50096 20.9787 9.3047C21.9661 9.10256 22.9827 9 23.9994 9C25.0153 9 26.0319 9.10256 27.0207 9.3047C27.9839 9.50102 28.9324 9.79468 29.8385 10.1777C30.7277 10.5557 31.5854 11.0207 32.3867 11.5635C33.18 12.1011 33.9271 12.7155 34.6061 13.3923C35.2836 14.0727 35.9004 14.8169 36.4358 15.6123C36.9792 16.4122 37.4443 17.2706 37.8193 18.1611C38.2031 19.0657 38.4961 20.0149 38.6939 20.9802C38.8967 21.9668 39 22.9834 39 24ZM18.5758 13C15.2531 14.5084 12.7733 17.4518 12 20.999L12.0115 20.9991C12.4187 21.0028 17.3395 21.0466 23 19.6007C20.9378 16.0783 18.7345 13.2037 18.5758 13ZM12.0094 23.69C12.2172 23.6981 18.0109 23.8297 24.0486 22C24.3845 22.6665 24.7057 23.3425 25 24.0171C24.8458 24.0619 24.6902 24.108 24.5374 24.1596C18.2094 26.231 15.0004 31.9939 15.0044 32C13.1365 29.898 12 27.118 12 24.0687C12 23.9806 12.0029 23.8946 12.0058 23.8078L12.0058 23.8078L12.0058 23.8077L12.0058 23.8077C12.0071 23.7687 12.0084 23.7295 12.0094 23.69ZM31 14.8558C29.0352 13.0782 26.4553 12 23.6297 12C22.7229 12 21.8429 12.1126 21 12.3208L21.0181 12.3457C21.2824 12.7089 23.3159 15.5034 25.172 19C29.3485 17.3936 30.9463 14.9383 30.999 14.8573L31 14.8558ZM26.4204 26.0093L26.4207 26.0092L26.4494 26C28.1296 30.3611 28.8232 34.0131 29 35.055C27.567 35.6638 25.992 36 24.3385 36C21.5694 36 19.027 35.0502 17 33.4758C17.0249 33.4218 19.3255 28.4787 26.3702 26.0259C26.3868 26.0199 26.4035 26.0146 26.4204 26.0093L26.4204 26.0093ZM31.1865 34C33.7089 32.133 35.5003 29.1684 36 25.7344C35.7688 25.6527 32.6259 24.5614 29 25.199C30.4735 29.6404 31.0722 33.2574 31.1865 34ZM27.7622 23.056C27.5241 22.5097 27.2663 21.966 27 21.4319C31.5005 19.6373 33.3458 17.0633 33.3906 17.0009L33.3912 17C35.0009 18.9078 35.9738 21.3448 36 24C35.9968 23.9994 35.9923 23.9984 35.9864 23.9972C35.6853 23.936 31.8758 23.1614 28.0102 23.6363C27.9295 23.4442 27.8469 23.252 27.7622 23.056Z" fill="white" />
</svg>