<svg viewBox="0 0 48 48" fill="none" xmlns="http://www.w3.org/2000/svg">
  <path d="M24 48C37.2548 48 48 37.2548 48 24C48 10.7452 37.2548 0 24 0C10.7452 0 0 10.7452 0 24C0 37.2548 10.7452 48 24 48Z" fill="#F1F1F1" />
  <path fill-rule="evenodd" clip-rule="evenodd" d="M10.4531 16.209L12.3314 11.2002H37.9953V28.7319L30.4828 36.2418H24.8495L21.095 40.0002H17.3368V36.2418H10.4531V16.209ZM35.4919 13.703H14.8337V31.8605H20.4708V35.6137L24.2242 31.8605H31.109L35.4919 27.4772V13.703Z" fill="#6441A5" />
  <path fill-rule="evenodd" clip-rule="evenodd" d="M24.2248 26.2265H21.7207V18.7144H24.2248V26.2265ZM31.1095 26.2265H28.6059V18.7144H31.1095V26.2265Z" fill="#6441A5" />
</svg>